 <svg version="1.0" xmlns="http://www.w3.org/2000/svg"
 width="300.000000pt" height="100.000000pt" viewBox="0 0 300.000000 100.000000"
 preserveAspectRatio="xMidYMid meet">
<metadata>
Created by potrace 1.10, written by Peter Selinger 2001-2011
</metadata>
<g transform="translate(0.000000,100.000000) scale(0.100000,-0.100000)"
fill="#000000" stroke="none">
<path d="M119 740 c0 -3 0 -88 1 -189 1 -200 8 -231 58 -285 84 -90 249 -87
326 5 52 61 56 83 56 286 l0 188 -25 0 -25 0 0 -170 c0 -93 -5 -186 -10 -207
-6 -21 -27 -51 -50 -71 -66 -60 -151 -62 -217 -4 -58 51 -63 74 -63 276 l0
179 -25 -2 c-14 0 -25 -3 -26 -6z"/>
<path d="M993 720 c-38 -22 -73 -86 -73 -130 0 -17 9 -49 21 -71 30 -60 78
-79 207 -79 101 0 104 -1 133 -29 21 -22 29 -39 29 -66 0 -27 -8 -44 -29 -66
-29 -28 -32 -29 -134 -29 -99 0 -107 2 -136 26 -19 16 -31 35 -31 50 0 20 -5
24 -31 24 -30 0 -31 -1 -25 -32 9 -43 31 -75 69 -98 27 -17 51 -20 153 -20
109 0 124 2 155 23 44 30 74 100 65 152 -10 50 -61 104 -111 115 -22 5 -81 10
-130 10 -103 0 -127 11 -145 64 -9 29 -8 40 5 66 22 43 68 60 162 60 97 0 144
-20 158 -67 8 -28 14 -33 38 -33 27 0 29 2 22 28 -11 43 -44 91 -75 107 -21
11 -62 15 -147 15 -99 0 -123 -3 -150 -20z"/>
<path d="M620 470 l0 -150 25 0 c24 0 24 1 27 108 3 91 5 103 15 82 6 -14 34
-61 60 -105 46 -75 51 -80 86 -83 l37 -3 0 150 0 151 -31 0 -31 0 4 -105 c1
-58 1 -105 -2 -105 -3 1 -32 48 -65 105 -57 99 -62 104 -92 105 l-33 0 0 -150z"/>
<path d="M1420 589 l0 -32 50 5 50 5 0 -123 0 -124 28 0 c26 0 27 2 25 47 -2
27 -4 82 -5 125 l-3 76 52 -5 53 -6 0 32 0 31 -125 0 -125 0 0 -31z"/>
<path d="M1814 606 c-60 -27 -99 -104 -84 -169 35 -156 255 -156 290 0 27 118
-94 217 -206 169z m130 -77 c44 -52 28 -123 -34 -149 -38 -16 -75 -6 -106 27
-32 35 -32 82 2 122 21 26 33 31 69 31 36 0 48 -5 69 -31z"/>
<path d="M2156 597 c-70 -40 -95 -124 -58 -197 35 -71 118 -99 197 -66 39 17
42 22 19 47 -14 15 -18 16 -42 3 -15 -8 -37 -14 -49 -14 -30 0 -80 45 -88 80
-7 33 15 84 44 100 25 13 77 13 102 -1 15 -7 24 -7 35 2 23 19 16 34 -21 52
-48 23 -92 21 -139 -6z"/>
<path d="M2390 470 l0 -150 34 0 c29 0 36 5 57 45 13 25 27 45 31 45 4 0 19
-20 34 -45 23 -39 30 -45 60 -45 l34 0 -45 69 c-25 38 -45 74 -45 80 0 6 20
42 45 81 l45 70 -34 0 c-32 0 -37 -5 -90 -94 -31 -52 -56 -99 -56 -105 0 -6
-5 -11 -11 -11 -9 0 -10 29 -5 105 l7 105 -31 0 -30 0 0 -150z"/>
<path d="M2671 473 c19 -21 45 -50 58 -65 l24 -27 -37 -46 -38 -46 -649 3
-649 3 0 -22 0 -23 673 1 672 0 53 64 54 65 -57 65 c-53 60 -61 65 -98 65
l-41 0 35 -37z"/>
<path d="M570 273 c0 -23 1 -23 165 -23 164 0 165 0 165 23 0 22 -1 22 -165
22 -164 0 -165 0 -165 -22z"/>
</g>
</svg>
